<svg xmlns="http://www.w3.org/2000/svg" viewBox="0 0 64 64" role="img" aria-label="CU PI STORE">
  <g stroke-linejoin="round">
    <path
      d="M32 9H14L5 18v28l9 9h18V42H19l-3-3V25l3-3h13Z"
      fill="#080a0f"
      stroke="#ffc400"
      stroke-width="5"
    />
    <path
      d="M32 9H14L5 18v28l9 9h18V42H19l-3-3V25l3-3h13Z"
      fill="#087cff"
      stroke="#f8fafc"
      stroke-width="2"
    />
    <path
      d="M28 9h20l11 10v16L49 44h-8v11H28Zm13 13v10h7l3-3v-4l-3-3Z"
      fill="#080a0f"
      fill-rule="evenodd"
      stroke="#ffc400"
      stroke-width="5"
    />
    <path
      d="M28 9h20l11 10v16L49 44h-8v11H28Zm13 13v10h7l3-3v-4l-3-3Z"
      fill="#087cff"
      fill-rule="evenodd"
      stroke="#f8fafc"
      stroke-width="2"
    />
  </g>
</svg>
